<?xml version="1.0" encoding="UTF-8" standalone="no"?>
<svg
   version="1.1"
   preserveAspectRatio="xMidYMid meet"
   height="970.87384"
   width="725.99841"
   viewBox="0 0 747.77837 995.14569"
   id="svg48"
   sodipodi:docname="shield.svg"
   inkscape:version="1.1.2 (08b2f3d93c, 2022-04-05)"
   xmlns:inkscape="http://www.inkscape.org/namespaces/inkscape"
   xmlns:sodipodi="http://sodipodi.sourceforge.net/DTD/sodipodi-0.dtd"
   xmlns="http://www.w3.org/2000/svg"
   xmlns:svg="http://www.w3.org/2000/svg">
  <sodipodi:namedview
     id="namedview50"
     pagecolor="#ffffff"
     bordercolor="#666666"
     borderopacity="1.0"
     inkscape:pageshadow="2"
     inkscape:pageopacity="0.0"
     inkscape:pagecheckerboard="0"
     showgrid="false"
     inkscape:zoom="0.59916667"
     inkscape:cx="38.386648"
     inkscape:cy="502.36439"
     inkscape:window-width="2188"
     inkscape:window-height="1434"
     inkscape:window-x="0"
     inkscape:window-y="0"
     inkscape:window-maximized="1"
     inkscape:current-layer="svg48"
     fit-margin-top="0"
     fit-margin-left="0"
     fit-margin-right="0"
     fit-margin-bottom="0" />
  <defs
     id="defs19" />
  <path
     d="M 176.59821,997.00005 C 116.19448,868.41823 95.552657,708.50104 92.964667,534.37061 160.58372,523.69773 258.44086,466.75156 256.67067,368.89441 c -14.23395,-65.83851 -81.853,-69.39958 -81.853,-69.39958 -69.39959,0 -67.61905,48.04347 -120.993793,44.4824 C -8.4535526,304.83644 0.43878736,233.65632 0.43878736,233.65632 8.9066874,198.98758 19.196547,167.95238 37.809387,153.58385 232.94397,175.80952 506.49469,61.616982 747.77834,-3 c -241.99793,145.91097 -218.88199,360.24845 0,364.77226 C 593.07855,370.70601 473.75142,486.32713 584.07233,667.81781 256.67067,566.39959 171.61891,761.20291 176.59821,997.00005 Z"
     id="path29"
     style="fill:#4444CC;stroke-width:1.0352" />
</svg>
